<?xml version="1.0" standalone="no"?><!DOCTYPE svg PUBLIC "-//W3C//DTD SVG 1.1//EN" "http://www.w3.org/Graphics/SVG/1.1/DTD/svg11.dtd"><svg t="1542276980417" class="icon" style="" viewBox="0 0 1024 1024" version="1.1" xmlns="http://www.w3.org/2000/svg" p-id="1388" xmlns:xlink="http://www.w3.org/1999/xlink" width="200" height="200"><defs><style type="text/css"></style></defs><path d="M980.864 584.96a473.696 473.696 0 0 1-395.936 400.928v36.608H439.04V985.92A473.664 473.664 0 0 1 43.136 584.864h-41.6v-145.76h43.328A473.92 473.92 0 0 1 439.072 50.176V1.504h145.888v48.768A474.016 474.016 0 0 1 979.168 439.04h43.328v145.92h-41.632zM475.552 977.216h72.96v-72.928h-72.96v72.928z m-428.8-501.664v72.928h72.96v-72.928h-72.96z m501.76-428.768h-72.96v72.928h72.96V46.784z m33.152 77.152v40.032h-139.328v-40a400.64 400.64 0 0 0-323.68 318.656h45.024v139.328H116.768a400.416 400.416 0 0 0 325.568 330.208v-51.584h139.328v51.584a400.416 400.416 0 0 0 325.568-330.208h-46.912v-139.328h45.088a400.864 400.864 0 0 0-323.744-318.656v-0.032z m395.584 351.616h-72.992v72.928h72.992v-72.928z" p-id="1389"></path><path d="M285.12 512a226.88 226.88 0 1 0 453.792 0A226.88 226.88 0 0 0 285.12 512" p-id="1390"></path></svg>