<?xml version="1.0" standalone="no"?><!DOCTYPE svg PUBLIC "-//W3C//DTD SVG 1.1//EN" "http://www.w3.org/Graphics/SVG/1.1/DTD/svg11.dtd"><svg t="1543477952922" class="icon" style="" viewBox="0 0 1024 1024" version="1.1" xmlns="http://www.w3.org/2000/svg" p-id="1412" xmlns:xlink="http://www.w3.org/1999/xlink" width="200" height="200"><defs><style type="text/css"></style></defs><path d="M211.233855 673.287758v0.001293l3.86198 59.214868c1.556687 23.880404 15.005737 45.022384 35.974465 56.555313 10.520566 5.785859 22.061253 8.679434 33.601939 8.679435s23.082667-2.893576 33.60194-8.679435c20.968727-11.534222 34.419071-32.676202 35.974464-56.555313l4.412768-67.669333 1.104162-16.907637c1.014949-15.559111-4.518788-31.00703-15.180283-42.386101-10.660202-11.376485-25.716364-17.903192-41.306505-17.903191h-37.210505c-15.591434 0-30.647596 6.525414-41.306505 17.903191-10.661495 11.379071-16.195232 26.82699-15.180283 42.387394l1.652363 25.359516z m91.438546 87.41107c-11.271758 6.199596-24.732444 6.199596-36.004202 0-11.234263-6.178909-18.442343-17.507556-19.276283-30.301091l-2.84703-43.653171c26.393859-3.877495 43.791515-12.916364 54.796929-21.458748a58.118465 58.118465 0 0 0 6.456889 3.856808c4.578263 2.366061 11.075232 4.702384 19.682262 7.073616l-3.532282 54.181495c-0.833939 12.794828-8.039434 24.122182-19.276283 30.301091z m24.819071-117.648808c-3.881374-1.268364-5.894465-2.174707-6.833132-2.662141a30.15499 30.15499 0 0 1-1.754505-0.978748l3.677091-9.804283a23.858424 23.858424 0 0 1 4.910546 13.445172z m-79.113051-15.378101c4.62998-4.944162 10.912323-7.665778 17.688566-7.665778h25.548282l-4.54206 12.113455c-2.316929 3.29697-13.653333 17.025293-44.638384 22.221576l-0.557252-8.517818c-0.440889-6.760727 1.86699-13.208566 6.500848-18.151435zM448.036441 892.708202c0-0.002586 0-0.002586 0 0-7.660606-42.290424-41.166869-76.043636-83.373252-83.991273a104.81002 104.81002 0 0 0-19.368081-1.808808h-18.558707a16.191354 16.191354 0 0 0-11.443717 4.739879l-30.621738 30.621737-30.621737-30.621737a16.187475 16.187475 0 0 0-11.443717-4.739879H224.046785a104.921212 104.921212 0 0 0-19.368081 1.808808c-42.206384 7.947636-75.710061 41.700848-83.37196 83.98998L115.142057 926.723879a16.183596 16.183596 0 0 0 15.92501 19.066828H438.270946c4.796768 0 9.345293-2.128162 12.422465-5.809131a16.190061 16.190061 0 0 0 3.502545-13.257697l-6.159515-34.015677zM150.448078 913.426101l2.708686-14.950141c5.286788-29.180121 28.397899-52.469657 57.512081-57.95297a72.484202 72.484202 0 0 1 13.379233-1.24897H235.901653l37.325576 37.325576c6.321131 6.318545 16.56501 6.318545 22.887434 0l37.325576-37.325576h11.854869c4.476121 0 8.976808 0.420202 13.379232 1.24897 29.114182 5.483313 52.226586 28.772848 57.513374 57.954263l2.707394 14.948848H150.448078zM679.41131 605.542141c-10.661495 11.379071-16.195232 26.82699-15.180283 42.387394l1.653657 25.358223v0.001293l3.860687 59.214868c1.556687 23.880404 15.005737 45.022384 35.974464 56.555313 10.520566 5.785859 22.061253 8.679434 33.60194 8.679435 11.540687 0 23.082667-2.893576 33.601939-8.679435 20.968727-11.534222 34.419071-32.676202 35.974465-56.555313l4.412767-67.669333 1.104162-16.908929c1.014949-15.559111-4.518788-31.00703-15.180283-42.386101-10.660202-11.376485-25.716364-17.903192-41.306505-17.903192h-37.209212c-15.590141 0.001293-30.647596 6.528-41.307798 17.905777z m77.914505 155.156687c-11.271758 6.199596-24.732444 6.199596-36.004202 0-11.234263-6.178909-18.442343-17.507556-19.276283-30.301091l-2.84703-43.653171c26.393859-3.877495 43.794101-12.916364 54.796929-21.458748a58.118465 58.118465 0 0 0 6.456889 3.856808c4.578263 2.366061 11.075232 4.702384 19.682263 7.073616l-3.532283 54.181495c-0.835232 12.794828-8.040727 24.122182-19.276283 30.301091z m24.819071-117.648808c-3.881374-1.268364-5.894465-2.174707-6.833132-2.662141a29.659798 29.659798 0 0 1-1.753212-0.978748l3.677091-9.804283a23.875232 23.875232 0 0 1 4.909253 13.445172z m-79.113051-15.378101c4.62998-4.944162 10.912323-7.665778 17.688566-7.665778h25.548283l-4.542061 12.113455c-2.316929 3.29697-13.653333 17.025293-44.638384 22.221576l-0.557252-8.517818c-0.440889-6.760727 1.86699-13.208566 6.500848-18.151435zM908.850663 926.723879l-6.164686-34.01697c-7.659313-42.290424-41.165576-76.043636-83.37196-83.991273a104.81002 104.81002 0 0 0-19.368081-1.808808h-18.558707a16.191354 16.191354 0 0 0-11.443717 4.739879l-30.621737 30.621737-30.621738-30.621737a16.187475 16.187475 0 0 0-11.443717-4.739879h-18.558707a104.921212 104.921212 0 0 0-19.368081 1.808808c-42.206384 7.947636-75.710061 41.700848-83.371959 83.98998l-6.164687 34.01697a16.183596 16.183596 0 0 0 15.92501 19.066828h307.203879a16.191354 16.191354 0 0 0 15.928888-19.065535z m-303.750464-13.297778l2.708687-14.950141c5.286788-29.180121 28.397899-52.469657 57.51208-57.95297a72.484202 72.484202 0 0 1 13.379233-1.24897h11.854868l37.325576 37.325576c6.321131 6.318545 16.56501 6.318545 22.887435 0l37.325575-37.325576h11.854869c4.476121 0 8.976808 0.420202 13.379232 1.24897 29.114182 5.483313 52.225293 28.772848 57.512081 57.95297l2.708687 14.948848H605.100199v0.001293zM438.560562 219.03903l3.86198 59.217455c1.556687 23.880404 15.005737 45.022384 35.974465 56.555313 10.520566 5.785859 22.061253 8.678141 33.601939 8.678141 11.540687 0 23.080081-2.892283 33.60194-8.678141 20.968727-11.534222 34.419071-32.676202 35.974464-56.555313l4.412768-67.669333 1.104162-16.90893c1.014949-15.559111-4.518788-31.00703-15.180283-42.386101-10.660202-11.379071-25.716364-17.903192-41.307798-17.903192h-37.209212c-15.591434 0-30.647596 6.525414-41.306505 17.903192-10.661495 11.379071-16.195232 26.82699-15.180283 42.387394l1.652363 25.359515z m91.438546 87.412364c-11.273051 6.199596-24.731152 6.199596-36.004202 0-11.234263-6.178909-18.442343-17.507556-19.276283-30.301091l-2.84703-43.653172c26.393859-3.877495 43.791515-12.916364 54.796929-21.458747a58.259394 58.259394 0 0 0 6.458182 3.856808c4.579556 2.366061 11.077818 4.702384 19.68097 7.073616l-3.532283 54.181495c-0.832646 12.794828-8.040727 24.122182-19.276283 30.301091z m24.819071-117.650101c-3.881374-1.268364-5.894465-2.177293-6.833132-2.662141a30.15499 30.15499 0 0 1-1.754505-0.978748l3.677091-9.805576a23.875232 23.875232 0 0 1 4.910546 13.446465z m-79.115637-15.378101c4.631273-4.944162 10.913616-7.665778 17.689859-7.665778h25.548283L514.398623 177.870869c-2.316929 3.29697-13.653333 17.025293-44.638384 22.221575l-0.557252-8.517818c-0.439596-6.76202 1.868283-13.207273 6.499555-18.151434zM358.395067 491.544566h307.203879a16.187475 16.187475 0 0 0 12.422465-5.810425 16.195232 16.195232 0 0 0 3.502545-13.257697l-6.162101-34.016969c-7.660606-42.290424-41.166869-76.043636-83.373252-83.98998a104.81002 104.81002 0 0 0-19.368081-1.808808h-18.558707a16.191354 16.191354 0 0 0-11.443717 4.739879l-30.620445 30.619151-30.621737-30.621737a16.187475 16.187475 0 0 0-11.443717-4.739879h-18.558707a104.921212 104.921212 0 0 0-19.368081 1.808808c-42.206384 7.947636-75.710061 41.700848-83.37196 83.98998l-6.164687 34.01697a16.188768 16.188768 0 0 0 15.926303 19.070707z m22.087112-47.316041c5.286788-29.180121 28.397899-52.469657 57.51208-57.952969a72.484202 72.484202 0 0 1 13.379233-1.24897h11.856161l37.32299 37.325576c6.321131 6.319838 16.56501 6.319838 22.887435 0l37.322989-37.325576h11.856162c4.476121 0 8.976808 0.420202 13.379232 1.24897 29.114182 5.483313 52.226586 28.772848 57.513374 57.954262l2.707394 14.950142H377.774785l2.707394-14.951435zM507.119431 558.198949c8.936727 0 16.183596-7.245576 16.183596-16.183595v-4.878223c0-8.93802-7.246869-16.183596-16.183596-16.183596-8.936727 0-16.183596 7.245576-16.183596 16.183596v4.878223c0 8.93802 7.246869 16.183596 16.183596 16.183595zM490.935835 649.724121l-97.501091 56.294142c-7.740768 4.468364-10.392566 14.365737-5.922909 22.106505a16.178424 16.178424 0 0 0 22.106505 5.922909l97.501091-56.294142 97.501091 56.294142a16.177131 16.177131 0 0 0 22.106505-5.922909c4.469657-7.740768 1.817859-17.638141-5.922909-22.106505l-97.501091-56.294142v-60.563394c0-8.93802-7.246869-16.183596-16.183596-16.183596-8.936727 0-16.183596 7.245576-16.183596 16.183596v60.563394z" fill="#000000" p-id="1413"></path></svg>